# xmcd CD database file
#
# Track frame offsets:
#	150
#	19425
#	39425
#	57247
#	73860
#	90595
#	111530
#	129012
#	148180
#	162302
#
# Disc length: 2406 seconds
#
# Revision: 0
# Processed by: cddbd v1.4PL0 Copyright (c) Steve Scherf et al.
# Submitted via: CDex 1.40Release
#
DISCID=8e09640a
DTITLE=TYRONE DAVIS - LOVE LINE
DYEAR=2002
DGENRE=Blues
TTITLE0=PO HOUSE
TTITLE1=TIP TOE THROUGH THE BEDROOM
TTITLE2=WHO'S BEEN ROCKIN
TTITLE3=I HIT THE JACKPOT
TTITLE4=SWEET THANG
TTITLE5=LOVE LINE
TTITLE6=YOU'RE SOMETHING ELSE
TTITLE7=RING MY PHONE
TTITLE8=I'M HANGING UP MY HEART FOR YOU
TTITLE9=LOVER
EXTD=YEAR: 2002 ID3G: 0
EXTT0=
EXTT1=
EXTT2=
EXTT3=
EXTT4=
EXTT5=
EXTT6=
EXTT7=
EXTT8=
EXTT9=
PLAYORDER=
